<svg viewBox="0 0 32 32" xmlns="http://www.w3.org/2000/svg">
  <!-- Wheat Y shape -->
  <!-- Left stem -->
  <path d="M 10 20 Q 8 15 8 10" stroke="white" stroke-width="2" fill="none" stroke-linecap="round"/>
  <!-- Right stem -->
  <path d="M 22 20 Q 24 15 24 10" stroke="white" stroke-width="2" fill="none" stroke-linecap="round"/>
  <!-- Center stem -->
  <path d="M 16 20 L 16 5" stroke="white" stroke-width="2" fill="none" stroke-linecap="round"/>
  
  <!-- Left grain head -->
  <g>
    <ellipse cx="6" cy="8" rx="1.5" ry="2.5" fill="white" opacity="0.9"/>
    <ellipse cx="7" cy="6" rx="1.5" ry="2.5" fill="white" opacity="0.9" transform="rotate(-30 7 6)"/>
    <ellipse cx="9" cy="7" rx="1.5" ry="2.5" fill="white" opacity="0.9" transform="rotate(30 9 7)"/>
    <ellipse cx="8" cy="4" rx="1.5" ry="2.5" fill="white" opacity="0.9" transform="rotate(-60 8 4)"/>
    <ellipse cx="10" cy="5" rx="1.5" ry="2.5" fill="white" opacity="0.9" transform="rotate(60 10 5)"/>
  </g>
  
  <!-- Center grain head -->
  <g>
    <ellipse cx="16" cy="3" rx="1.5" ry="2.5" fill="white"/>
    <ellipse cx="14" cy="4" rx="1.5" ry="2.5" fill="white" transform="rotate(-40 14 4)"/>
    <ellipse cx="18" cy="4" rx="1.5" ry="2.5" fill="white" transform="rotate(40 18 4)"/>
    <ellipse cx="13" cy="6" rx="1.5" ry="2.5" fill="white" transform="rotate(-70 13 6)"/>
    <ellipse cx="19" cy="6" rx="1.5" ry="2.5" fill="white" transform="rotate(70 19 6)"/>
  </g>
  
  <!-- Right grain head -->
  <g>
    <ellipse cx="26" cy="8" rx="1.5" ry="2.5" fill="white" opacity="0.9"/>
    <ellipse cx="25" cy="6" rx="1.5" ry="2.5" fill="white" opacity="0.9" transform="rotate(30 25 6)"/>
    <ellipse cx="23" cy="7" rx="1.5" ry="2.5" fill="white" opacity="0.9" transform="rotate(-30 23 7)"/>
    <ellipse cx="24" cy="4" rx="1.5" ry="2.5" fill="white" opacity="0.9" transform="rotate(60 24 4)"/>
    <ellipse cx="22" cy="5" rx="1.5" ry="2.5" fill="white" opacity="0.9" transform="rotate(-60 22 5)"/>
  </g>
</svg>
